<svg xmlns="http://www.w3.org/2000/svg" viewBox="0 0 800 600" preserveAspectRatio="xMinYMin meet">
  <defs>
    <linearGradient id="skyGradient" x1="50%" y1="0%" x2="50%" y2="100%">
      <stop offset="0%" style="stop-color: #102D40; stop-opacity: 1" />
      <stop offset="100%" style="stop-color: #D1DCE5; stop-opacity: 1" />
    </linearGradient>
  </defs>
  
  <!-- Sky Background -->
  <rect width="800" height="600" fill="url(#skyGradient)" />

  <!-- Buildings -->
  <g fill="#0F1E42">
    <!-- Building 1 -->
    <rect x="10" y="510" width="30" height="90" />
    <!-- Windows -->
    <rect x="15" y="520" width="5" height="5" fill="#F2F2F2" />
    <rect x="15" y="530" width="5" height="5" fill="#F2F2F2" />

    <!-- Building 2 -->
    <rect x="60" y="500" width="50" height="100" />
    <!-- Windows -->
    <rect x="70" y="510" width="5" height="5" fill="#F2F2F2" />
    <rect x="90" y="510" width="5" height="5" fill="#F2F2F2" />
    <rect x="70" y="530" width="5" height="5" fill="#F2F2F2" />
    <rect x="90" y="530" width="5" height="5" fill="#F2F2F2" />

    <!-- Building 3 -->
    <rect x="130" y="520" width="40" height="80" />
    <!-- Windows -->
    <rect x="140" y="530" width="5" height="5" fill="#F2F2F2" />
    <rect x="160" y="530" width="5" height="5" fill="#F2F2F2" />

    <!-- Building 4 -->
    <rect x="190" y="490" width="60" height="110" />
    <!-- Windows -->
    <rect x="200" y="500" width="5" height="5" fill="#F2F2F2" />
    <rect x="220" y="500" width="5" height="5" fill="#F2F2F2" />
    <rect x="240" y="500" width="5" height="5" fill="#F2F2F2" />

    <!-- Building 5 -->
    <rect x="270" y="510" width="40" height="90" />
    <!-- Windows -->
    <rect x="280" y="520" width="5" height="5" fill="#F2F2F2" />
    <rect x="300" y="520" width="5" height="5" fill="#F2F2F2" />

    <!-- Building 6 -->
    <rect x="330" y="470" width="80" height="130" />
    <!-- Windows -->
    <rect x="340" y="480" width="5" height="5" fill="#F2F2F2" />
    <rect x="360" y="480" width="5" height="5" fill="#F2F2F2" />
    <rect x="380" y="480" width="5" height="5" fill="#F2F2F2" />

    <!-- Building 7 -->
    <rect x="430" y="500" width="50" height="100" />
    <!-- Windows -->
    <rect x="440" y="510" width="5" height="5" fill="#F2F2F2" />
    <rect x="460" y="510" width="5" height="5" fill="#F2F2F2" />

    <!-- Building 8 -->
    <rect x="500" y="480" width="60" height="120" />
    <!-- Windows -->
    <rect x="510" y="490" width="5" height="5" fill="#F2F2F2" />
    <rect x="530" y="490" width="5" height="5" fill="#F2F2F2" />

    <!-- Building 9 -->
    <rect x="580" y="520" width="30" height="80" />
    <!-- Windows -->
    <rect x="585" y="530" width="5" height="5" fill="#F2F2F2" />
    <rect x="585" y="540" width="5" height="5" fill="#F2F2F2" />

    <!-- Lamp Posts -->
    <g fill="#F2F2F2">
      <!-- Lamp Post 1 -->
    <rect x="50" y="540" width="5" height="40" />
    <circle cx="52.5" cy="540" r="5" fill="#F2F2F2" />
    <circle cx="52.5" cy="540" r="10" fill="rgba(12, 154, 242, 0.5)" />
    <circle cx="52.5" cy="540" r="15" fill="rgba(12, 154, 242, 0.2)" />

    <!-- Lamp Post 2 -->
    <rect x="250" y="540" width="5" height="40" />
    <circle cx="252.5" cy="540" r="5" fill="#F2F2F2" />
    <circle cx="252.5" cy="540" r="10" fill="rgba(12, 154, 242, 0.5)" />
    <circle cx="252.5" cy="540" r="15" fill="rgba(12, 154, 242, 0.2)" />

    <!-- Lamp Post 3 -->
    <rect x="450" y="540" width="5" height="40" />
    <circle cx="452.5" cy="540" r="5" fill="#F2F2F2" />
    <circle cx="452.5" cy="540" r="10" fill="rgba(12, 154, 242, 0.5)" />
    <circle cx="452.5" cy="540" r="15" fill="rgba(12, 154, 242, 0.2)" />

    <!-- Lamp Post 4 -->
    <rect x="650" y="540" width="5" height="40" />
    <circle cx="652.5" cy="540" r="5" fill="#F2F2F2" />
    <circle cx="652.5" cy="540" r="10" fill="rgba(12, 154, 242, 0.5)" />
    <circle cx="652.5" cy="540" r="15" fill="rgba(12, 154, 242, 0.2)" />
    </g>
  </g>

  <!-- Ground -->
  <rect y="580" width="800" height="20" fill="#102D40" />
</svg>
