<svg xmlns="http://www.w3.org/2000/svg" viewBox="0 0 800 600" preserveAspectRatio="xMinYMin meet">
  <defs>
    <linearGradient id="skyGradient" x1="50%" y1="0%" x2="50%" y2="100%">
      <stop offset="0%" style="stop-color: #102D40; stop-opacity: 1" />
      <stop offset="100%" style="stop-color: #D1DCE5; stop-opacity: 1" />
    </linearGradient>
  </defs>
  
  <!-- Sky Background -->
  <rect width="800" height="600" fill="url(#skyGradient)" />

  <!-- Buildings with enhanced design -->
  <g fill="#0F1E42">
    <!-- Building 1 -->
    <rect x="10" y="510" width="40" height="90" rx="5" ry="5" />
    <!-- Windows -->
    <circle cx="25" cy="525" r="3" fill="#F2F2F2" />
    <circle cx="25" cy="540" r="3" fill="#F2F2F2" />

    <!-- Building 2 -->
    <rect x="70" y="490" width="60" height="110" rx="5" ry="5" />
    <!-- Windows -->
    <circle cx="85" cy="505" r="3" fill="#F2F2F2" />
    <circle cx="115" cy="505" r="3" fill="#F2F2F2" />
    <circle cx="85" cy="525" r="3" fill="#F2F2F2" />
    <circle cx="115" cy="525" r="3" fill="#F2F2F2" />

    <!-- Building 3 with rooftop details -->
    <rect x="150" y="520" width="50" height="80" rx="5" ry="5" />
    <rect x="165" y="510" width="20" height="10" fill="#0F1E42" />
    <!-- Windows -->
    <circle cx="165" cy="535" r="3" fill="#F2F2F2" />
    <circle cx="185" cy="535" r="3" fill="#F2F2F2" />
    <circle cx="165" cy="555" r="3" fill="#F2F2F2" />
    <circle cx="185" cy="555" r="3" fill="#F2F2F2" />

    <!-- Building 4 with antenna -->
    <rect x="220" y="470" width="80" height="130" rx="5" ry="5" />
    <line x1="260" y1="470" x2="260" y2="440" stroke="#F2F2F2" stroke-width="2" />
    <!-- Windows -->
    <circle cx="235" cy="485" r="3" fill="#F2F2F2" />
    <circle cx="260" cy="485" r="3" fill="#F2F2F2" />
    <circle cx="285" cy="485" r="3" fill="#F2F2F2" />
    <circle cx="235" cy="505" r="3" fill="#F2F2F2" />
    <circle cx="260" cy="505" r="3" fill="#F2F2F2" />
    <circle cx="285" cy="505" r="3" fill="#F2F2F2" />

    <!-- Building 5 with staggered windows -->
    <rect x="320" y="500" width="50" height="100" rx="5" ry="5" />
    <!-- Windows -->
    <circle cx="335" cy="515" r="3" fill="#F2F2F2" />
    <circle cx="355" cy="530" r="3" fill="#F2F2F2" />
    <circle cx="335" cy="545" r="3" fill="#F2F2F2" />

    <!-- Building 6 with rooftop and design variation -->
    <rect x="390" y="460" width="100" height="140" rx="5" ry="5" />
    <rect x="420" y="450" width="40" height="10" fill="#0F1E42" />
    <!-- Windows -->
    <circle cx="410" cy="475" r="3" fill="#F2F2F2" />
    <circle cx="440" cy="475" r="3" fill="#F2F2F2" />
    <circle cx="470" cy="475" r="3" fill="#F2F2F2" />
    <circle cx="410" cy="495" r="3" fill="#F2F2F2" />
    <circle cx="440" cy="495" r="3" fill="#F2F2F2" />
    <circle cx="470" cy="495" r="3" fill="#F2F2F2" />
    <circle cx="410" cy="515" r="3" fill="#F2F2F2" />
    <circle cx="440" cy="515" r="3" fill="#F2F2F2" />
    <circle cx="470" cy="515" r="3" fill="#F2F2F2" />

    <!-- Building 7 -->
    <rect x="520" y="490" width="60" height="110" rx="5" ry="5" />
    <!-- Windows -->
    <circle cx="535" cy="505" r="3" fill="#F2F2F2" />
    <circle cx="555" cy="505" r="3" fill="#F2F2F2" />

    <!-- Building 8 -->
    <rect x="600" y="510" width="40" height="90" rx="5" ry="5" />
    <!-- Windows -->
    <circle cx="615" cy="525" r="3" fill="#F2F2F2" />
    <circle cx="615" cy="540" r="3" fill="#F2F2F2" />

    <!-- Building 9 -->
    <rect x="660" y="480" width="70" height="120" rx="5" ry="5" />
    <!-- Windows -->
    <circle cx="675" cy="495" r="3" fill="#F2F2F2" />
    <circle cx="695" cy="495" r="3" fill="#F2F2F2" />
  </g>

  <!-- Lamp Posts with glow effect -->
  <g fill="#F2F2F2">
    <!-- Lamp Post 1 -->
    <rect x="50" y="540" width="5" height="40" />
    <circle cx="52.5" cy="540" r="5" fill="#F2F2F2" />
    <circle cx="52.5" cy="540" r="15" fill="rgba(12, 154, 242, 0.3)" />
    <circle cx="52.5" cy="540" r="25" fill="rgba(12, 154, 242, 0.1)" />

    <!-- Lamp Post 2 -->
    <rect x="250" y="540" width="5" height="40" />
    <circle cx="252.5" cy="540" r="5" fill="#F2F2F2" />
    <circle cx="252.5" cy="540" r="15" fill="rgba(12, 154, 242, 0.3)" />
    <circle cx="252.5" cy="540" r="25" fill="rgba(12, 154, 242, 0.1)" />

    <!-- Lamp Post 3 -->
    <rect x="450" y="540" width="5" height="40" />
    <circle cx="452.5" cy="540" r="5" fill="#F2F2F2" />
    <circle cx="452.5" cy="540" r="15" fill="rgba(12, 154, 242, 0.3)" />
    <circle cx="452.5" cy="540" r="25" fill="rgba(12, 154, 242, 0.1)" />

    <!-- Lamp Post 4 -->
    <rect x="650" y="540" width="5" height="40" />
    <circle cx="652.5" cy="540" r="5" fill="#F2F2F2" />
    <circle cx="652.5" cy="540" r="15" fill="rgba(12, 154, 242, 0.3)" />
    <circle cx="652.5" cy="540" r="25" fill="rgba(12, 154, 242, 0.1)" />
  </g>

  <!-- Ground -->
  <rect y="580" width="800" height="20" fill="#102D40" />
</svg>